HIERARCHY
ROOT Hips
{
  OFFSET 0.0502701 92.146 0
  CHANNELS 6 Xposition Yposition Zposition Zrotation Xrotation Yrotation
  JOINT Bip01_Pelvis
  {
    OFFSET 0 0 0
    CHANNELS 6 Xposition Yposition Zposition Zrotation Xrotation Yrotation
    JOINT BN_Tai_01
    {
      OFFSET -4.6544 -2.06234 0
      CHANNELS 6 Xposition Yposition Zposition Zrotation Xrotation Yrotation
      JOINT BN_Tai_R_01
      {
        OFFSET 10.2279 -0.119812 3.68897
        CHANNELS 6 Xposition Yposition Zposition Zrotation Xrotation Yrotation
        JOINT BN_Tai_R_02
        {
          OFFSET 15.0421 0 1.52588e-005
          CHANNELS 6 Xposition Yposition Zposition Zrotation Xrotation Yrotation
          End Site
          {
            OFFSET 0 0 0
          }
        }
      }
      JOINT BN_Tai_L_01
      {
        OFFSET 10.2279 -0.119797 -3.68907
        CHANNELS 6 Xposition Yposition Zposition Zrotation Xrotation Yrotation
        JOINT BN_Tai_L_02
        {
          OFFSET 15.0421 0 0
          CHANNELS 6 Xposition Yposition Zposition Zrotation Xrotation Yrotation
          End Site
          {
            OFFSET 0 0 0
          }
        }
      }
    }
    JOINT Bip01_Spine
    {
      OFFSET 2.7319 1.49192 0
      CHANNELS 6 Xposition Yposition Zposition Zrotation Xrotation Yrotation
      JOINT Bip01_R_Thigh
      {
        OFFSET -2.85206 -1.24717 -6.20578
        CHANNELS 6 Xposition Yposition Zposition Zrotation Xrotation Yrotation
        JOINT Bip01_R_Calf
        {
          OFFSET 6.73247 0 0
          CHANNELS 6 Xposition Yposition Zposition Zrotation Xrotation Yrotation
          JOINT Bip01_R_HorseLink
          {
            OFFSET 8.08523 0 0
            CHANNELS 6 Xposition Yposition Zposition Zrotation Xrotation Yrotation
            JOINT Bip01_R_Foot
            {
              OFFSET 8.97518 0 0
              CHANNELS 6 Xposition Yposition Zposition Zrotation Xrotation Yrotation
              JOINT BN_Toe_R_30
              {
                OFFSET 1.58762 -0.234982 -0.295153
                CHANNELS 6 Xposition Yposition Zposition Zrotation Xrotation Yrotation
                JOINT BN_Toe_R_31
                {
                  OFFSET 3.03849 0 0
                  CHANNELS 6 Xposition Yposition Zposition Zrotation Xrotation Yrotation
                  End Site
                  {
                    OFFSET 0 0 0
                  }
                }
              }
              JOINT BN_Toe_R_00
              {
                OFFSET 1.65463 0.933666 1.02414
                CHANNELS 6 Xposition Yposition Zposition Zrotation Xrotation Yrotation
                JOINT BN_Toe_R_01
                {
                  OFFSET 3.51775 0 0
                  CHANNELS 6 Xposition Yposition Zposition Zrotation Xrotation Yrotation
                  End Site
                  {
                    OFFSET 0 0 0
                  }
                }
              }
              JOINT BN_Toe_R_20
              {
                OFFSET 1.47309 1.0106 -1.16708
                CHANNELS 6 Xposition Yposition Zposition Zrotation Xrotation Yrotation
                JOINT BN_Toe_R_21
                {
                  OFFSET 3.94896 0 0
                  CHANNELS 6 Xposition Yposition Zposition Zrotation Xrotation Yrotation
                  End Site
                  {
                    OFFSET 0 0 0
                  }
                }
              }
              JOINT BN_Toe_R_10
              {
                OFFSET 1.07522 1.64225 0.0223596
                CHANNELS 6 Xposition Yposition Zposition Zrotation Xrotation Yrotation
                JOINT BN_Toe_R_11
                {
                  OFFSET 4.09655 0 0
                  CHANNELS 6 Xposition Yposition Zposition Zrotation Xrotation Yrotation
                  End Site
                  {
                    OFFSET 0 0 0
                  }
                }
              }
              JOINT Bip01_R_Toe0
              {
                OFFSET 2.04238 1.88275 0
                CHANNELS 6 Xposition Yposition Zposition Zrotation Xrotation Yrotation
                End Site
                {
                  OFFSET 0 0 0
                }
              }
            }
          }
        }
      }
      JOINT Bip01_L_Thigh
      {
        OFFSET -2.85154 -1.24849 6.20577
        CHANNELS 6 Xposition Yposition Zposition Zrotation Xrotation Yrotation
        JOINT Bip01_L_Calf
        {
          OFFSET 6.73247 0 0
          CHANNELS 6 Xposition Yposition Zposition Zrotation Xrotation Yrotation
          JOINT Bip01_L_HorseLink
          {
            OFFSET 8.08524 0 0
            CHANNELS 6 Xposition Yposition Zposition Zrotation Xrotation Yrotation
            JOINT Bip01_L_Foot
            {
              OFFSET 8.97521 0 0
              CHANNELS 6 Xposition Yposition Zposition Zrotation Xrotation Yrotation
              JOINT BN_Toe_L_00
              {
                OFFSET 1.65461 0.933701 -1.02419
                CHANNELS 6 Xposition Yposition Zposition Zrotation Xrotation Yrotation
                JOINT BN_Toe_L_01
                {
                  OFFSET 3.51778 0 0
                  CHANNELS 6 Xposition Yposition Zposition Zrotation Xrotation Yrotation
                  End Site
                  {
                    OFFSET 0 0 0
                  }
                }
              }
              JOINT BN_Toe_L_10
              {
                OFFSET 1.07523 1.6422 -0.0221281
                CHANNELS 6 Xposition Yposition Zposition Zrotation Xrotation Yrotation
                JOINT BN_Toe_L_11
                {
                  OFFSET 4.09657 0 0
                  CHANNELS 6 Xposition Yposition Zposition Zrotation Xrotation Yrotation
                  End Site
                  {
                    OFFSET 0 0 0
                  }
                }
              }
              JOINT BN_Toe_L_30
              {
                OFFSET 1.58761 -0.234954 0.295135
                CHANNELS 6 Xposition Yposition Zposition Zrotation Xrotation Yrotation
                JOINT BN_Toe_L_31
                {
                  OFFSET 3.03847 0 0
                  CHANNELS 6 Xposition Yposition Zposition Zrotation Xrotation Yrotation
                  End Site
                  {
                    OFFSET 0 0 0
                  }
                }
              }
              JOINT BN_Toe_L_20
              {
                OFFSET 1.4731 1.01055 1.1673
                CHANNELS 6 Xposition Yposition Zposition Zrotation Xrotation Yrotation
                JOINT BN_Toe_L_21
                {
                  OFFSET 3.94897 0 0
                  CHANNELS 6 Xposition Yposition Zposition Zrotation Xrotation Yrotation
                  End Site
                  {
                    OFFSET 0 0 0
                  }
                }
              }
              JOINT Bip01_L_Toe0
              {
                OFFSET 2.04238 1.88276 0
                CHANNELS 6 Xposition Yposition Zposition Zrotation Xrotation Yrotation
                End Site
                {
                  OFFSET 0 0 0
                }
              }
            }
          }
        }
      }
      JOINT Bip01_Spine1
      {
        OFFSET 8.6167 -0.00679016 0
        CHANNELS 6 Xposition Yposition Zposition Zrotation Xrotation Yrotation
        JOINT BN_Wing_R_01
        {
          OFFSET 0.267445 -6.12421 -7.49305
          CHANNELS 6 Xposition Yposition Zposition Zrotation Xrotation Yrotation
          JOINT BN_Wing_R_02
          {
            OFFSET 14.7158 0 0
            CHANNELS 6 Xposition Yposition Zposition Zrotation Xrotation Yrotation
            JOINT BN_Wing_R_03
            {
              OFFSET 19.0858 0 0
              CHANNELS 6 Xposition Yposition Zposition Zrotation Xrotation Yrotation
              JOINT BN_Wing_R_05
              {
                OFFSET 2.68908 -0.270637 0.785261
                CHANNELS 6 Xposition Yposition Zposition Zrotation Xrotation Yrotation
                JOINT BN_Wing_R_06
                {
                  OFFSET 21.1083 0 0
                  CHANNELS 6 Xposition Yposition Zposition Zrotation Xrotation Yrotation
                  End Site
                  {
                    OFFSET 0 0 0
                  }
                }
              }
              JOINT BN_Wing_R_04
              {
                OFFSET 27.642 0 0
                CHANNELS 6 Xposition Yposition Zposition Zrotation Xrotation Yrotation
                End Site
                {
                  OFFSET 0 0 0
                }
              }
            }
          }
        }
        JOINT BN_Wing_L_01
        {
          OFFSET 0.267452 -6.12421 7.49305
          CHANNELS 6 Xposition Yposition Zposition Zrotation Xrotation Yrotation
          JOINT BN_Wing_L_02
          {
            OFFSET 14.7158 0 0
            CHANNELS 6 Xposition Yposition Zposition Zrotation Xrotation Yrotation
            JOINT BN_Wing_L_03
            {
              OFFSET 19.0858 0 0
              CHANNELS 6 Xposition Yposition Zposition Zrotation Xrotation Yrotation
              JOINT BN_Wing_L_05
              {
                OFFSET 2.68908 -0.270635 -0.785254
                CHANNELS 6 Xposition Yposition Zposition Zrotation Xrotation Yrotation
                JOINT BN_Wing_L_06
                {
                  OFFSET 21.1083 0 0
                  CHANNELS 6 Xposition Yposition Zposition Zrotation Xrotation Yrotation
                  End Site
                  {
                    OFFSET 0 0 0
                  }
                }
              }
              JOINT BN_Wing_L_04
              {
                OFFSET 27.642 0 1.14441e-005
                CHANNELS 6 Xposition Yposition Zposition Zrotation Xrotation Yrotation
                End Site
                {
                  OFFSET 0 0 0
                }
              }
            }
          }
        }
        JOINT Bip01_Neck
        {
          OFFSET 7.59958 -1.43237 0
          CHANNELS 6 Xposition Yposition Zposition Zrotation Xrotation Yrotation
          JOINT Bip01_Neck1
          {
            OFFSET 3.64749 -0.00262451 0
            CHANNELS 6 Xposition Yposition Zposition Zrotation Xrotation Yrotation
            JOINT Bip01_Neck2
            {
              OFFSET 3.32331 -0.00284576 0
              CHANNELS 6 Xposition Yposition Zposition Zrotation Xrotation Yrotation
              JOINT Bip01_Head
              {
                OFFSET 4.63256 -0.573471 0
                CHANNELS 6 Xposition Yposition Zposition Zrotation Xrotation Yrotation
                JOINT BN_Jaw
                {
                  OFFSET 1.05386 2.23561 0
                  CHANNELS 6 Xposition Yposition Zposition Zrotation Xrotation Yrotation
                  End Site
                  {
                    OFFSET 0 0 0
                  }
                }
              }
            }
          }
        }
      }
    }
  }
}
MOTION
Frames:	4
Frame Time:	0.0333333
0.176045 103.27 3.67433e-007 99.7903 -89.9999 -79.6188 0 -3.63798e-012 0 89.9928 29.2563 89.9929 -4.65434 -2.06247 -9.31325e-010 -5.61567 1.92618 179.447 10.228 -0.120064 3.68889 35.9547 78.5158 -27.148 15.0421 2.98023e-008 3.8147e-006 6.13455 -5.25442 -39.3261 10.2278 -0.120068 -3.68915 -133.998 76.4183 147.417 15.0421 -3.55272e-015 -3.8147e-006 -7.76589 6.17057 -39.1287 -2.77455 1.41371 4.68187e-010 -4.26406 -0.149166 -1.26052 7.6294e-006 -7.6294e-006 -6.20578 -48.6552 -5.58722 -172.024 6.73248 -3.8147e-006 1.90735e-006 -52.865 -1.87499e-005 -7.83257e-006 8.08523 -4.76837e-007 -9.53674e-007 57.925 8.18183e-007 -8.04315e-007 8.9752 -7.10543e-015 5.32907e-015 -10.3894 1.77377 -4.8168 1.58769 -0.23461 -0.295067 151.899 -3.88026 174.145 3.03848 0.000823021 -9.53673e-007 -31.4113 -2.91203 1.55987 1.65434 0.934261 1.02404 42.535 37.23 -29.4599 3.51775 -0.00142288 0.00177193 -43.8589 -3.09908 1.59503 1.47286 1.0108 -1.16719 14.7502 -28.8385 23.6491 3.94896 0.000770569 8.94275e-008 -27.6063 -2.38212 0.588936 1.07478 1.64254 0.0221283 26.9437 -9.80653 -2.26194 4.09656 0.00112534 6.11067e-013 -31.4013 -3.01044 1.63571 2.04188 1.88329 -5.19074e-011 37.8085 8.85398 -10.7747 -1.52588e-005 -3.8147e-006 6.20577 -42.9893 3.35886 174.188 6.73249 -7.6294e-006 -4.76837e-007 -34.9405 -6.58095e-007 5.42068e-007 8.08525 1.42109e-014 4.76837e-007 70.3831 4.50461e-006 -1.06578e-005 8.97519 -7.62939e-006 4.76837e-007 -85.2804 -5.64813 -5.73423 1.65463 0.93365 -1.0242 62.9982 -31.353 31.6132 3.51776 0 9.53674e-007 0.88655 0.000333608 0.0227272 1.07526 1.64217 -0.0221434 43.1506 0.750594 8.08238 4.09657 -1.14441e-005 -2.38419e-007 9.77594 -0.00117181 -0.00685712 1.58763 -0.234992 0.295126 178.72 4.9758 178.593 3.03848 7.10542e-015 0 -30.2738 9.39512e-006 5.89024e-006 1.47314 1.01053 1.16728 46.6452 26.9366 -2.59525 3.94897 7.10542e-015 -1.19209e-007 -1.68919 -0.000205187 0.006991 2.04243 1.8827 9.60122e-007 77.3245 0.145042 -5.71965 8.61808 -0.0066185 -8.88179e-016 11.9072 0.406647 2.62421 0.267601 -6.12424 -7.49304 -67.2994 -25.0616 144.415 14.7158 7.62939e-006 7.62939e-006 52.228 1.04361 8.2487 19.0858 2.13163e-013 1.90735e-006 -41.567 -1.28162 34.3114 2.68913 -0.27058 0.785255 -48.9293 2.20026 4.01034 21.1083 7.62939e-006 -3.55271e-015 -8.31381 2.05656 -31.3051 27.642 -3.8147e-006 -1.52588e-005 -2.67134 -0.0632165 3.01075 0.267609 -6.12423 7.49306 -67.5423 25.3283 -144.296 14.7158 1.14441e-005 -3.8147e-006 52.228 -1.04361 -8.2487 19.0859 3.8147e-006 9.53674e-006 -41.567 1.28163 -34.3114 2.73049 -0.254303 -0.76532 -48.9895 -1.98442 -2.49545 21.1083 -7.62939e-006 -7.62939e-006 -8.31382 -2.05656 31.3051 27.642 0 -1.77636e-014 -2.67134 0.0632166 -3.01077 7.59912 -1.43219 2.38419e-007 2.00019 3.03815 -4.65186 3.64795 -0.00254059 -1.19209e-007 -2.84975 -0.244626 2.2339 3.32397 -0.00277329 -2.38419e-007 15.5014 0.222336 1.73174 4.63258 -0.573326 2.91122e-010 -11.5998 -2.62288 -0.516106 1.05384 2.23562 -3.55015e-009 -100.52 -0.033844 -179.972 
0.170542 103.414 3.75802e-007 94.7369 -89.9999 -84.7672 1.11022e-016 -3.63798e-012 0 89.9928 29.524 89.9929 -4.65434 -2.06247 -9.31324e-010 -6.64716 1.93582 179.482 10.228 -0.120064 3.68889 34.3829 78.4245 -24.3544 15.0421 2.98023e-008 3.8147e-006 6.12958 -5.2932 -38.2538 10.2278 -0.120068 -3.68915 -134.942 76.3528 149.575 15.0421 -8.88179e-015 -3.8147e-006 -7.74151 6.19966 -38.0584 -2.7689 1.42489 -8.80842e-013 -3.96417 -0.155497 -1.26357 7.6294e-006 -7.6294e-006 -6.20578 -50.2811 -5.80956 -172.103 6.73248 -3.8147e-006 1.90735e-006 -53.71 -1.05576e-005 -1.40376e-005 8.08523 -4.76837e-007 -9.53674e-007 57.397 8.25561e-007 -7.9674e-007 8.9752 1.42109e-014 0 -10.5718 1.77644 -4.87493 1.58769 -0.23461 -0.295067 152.143 -3.92483 174.133 3.03848 0.000823021 -9.53673e-007 -31.6644 -2.8734 1.52913 1.65434 0.934261 1.02404 42.3331 37.3561 -29.3699 3.51775 -0.00142288 0.00177193 -44.0509 -3.01207 1.54148 1.47286 1.0108 -1.16719 14.0784 -29.3298 23.3977 3.94896 0.000770569 8.94289e-008 -27.2464 -2.34312 0.568588 1.07478 1.64254 0.0221283 26.7735 -9.72866 -2.3379 4.09656 0.00112534 5.77316e-013 -31.6307 -2.93979 1.58266 2.04188 1.88329 -5.02838e-011 37.4363 8.8008 -10.5585 -1.52588e-005 -3.8147e-006 6.20577 -43.8599 3.43632 174.142 6.73249 -7.6294e-006 -4.76837e-007 -35.5649 -6.88301e-007 5.49529e-007 8.08525 3.55271e-015 4.76837e-007 70.6661 1.39147e-005 -7.38356e-006 8.97519 -7.62939e-006 4.76837e-007 -86.2553 -5.72951 -5.69001 1.65463 0.93365 -1.0242 63.3147 -31.2105 31.7649 3.51776 -1.42108e-014 9.53674e-007 0.442531 0.000170709 0.0244324 1.07526 1.64217 -0.0221434 43.6326 0.819017 8.07578 4.09657 -1.14441e-005 -2.38419e-007 8.71518 -0.000514771 -0.00342096 1.58763 -0.234992 0.295126 178.759 4.96995 178.593 3.03848 0 0 -30.759 9.31376e-006 5.97798e-006 1.47314 1.01053 1.16728 46.8643 26.895 -2.60375 3.94897 3.55271e-015 -1.19209e-007 -2.4364 -0.000183763 0.00434142 2.04243 1.8827 9.59483e-007 77.2627 0.104285 -5.65757 8.61808 -0.0066185 0 11.8965 0.406157 2.62428 0.267601 -6.12424 -7.49304 -67.8161 -25.623 141.376 14.7158 7.62939e-006 7.62939e-006 55.0245 1.35469 8.03158 19.0859 0 1.90735e-006 -45.244 -4.16867 40.1971 2.68913 -0.27058 0.785255 -48.475 2.22925 4.66061 21.1083 7.62939e-006 0 -8.0488 1.94343 -29.2177 27.642 -3.8147e-006 -1.52588e-005 -2.66877 -0.0637718 5.08463 0.267609 -6.12423 7.49306 -68.4375 26.2786 -141.091 14.7158 1.14441e-005 -3.8147e-006 55.0246 -1.3547 -8.03159 19.0859 3.8147e-006 9.53674e-006 -45.244 4.16868 -40.1972 2.8466 -0.204425 -0.709518 -48.8449 -1.72728 -2.48015 21.1083 -7.62939e-006 -7.62939e-006 -8.04881 -1.94343 29.2177 27.642 1.42108e-014 -2.13163e-014 -2.66877 0.0637692 -5.08463 7.59912 -1.43219 2.38419e-007 1.39051 3.04147 -4.66353 3.64795 -0.00254059 -1.19209e-007 -1.96237 -0.21656 2.23719 3.32397 -0.00277329 -2.38419e-007 15.3013 0.216285 1.73251 4.63258 -0.573326 3.11764e-010 -12.2711 -2.61473 -0.502502 1.05384 2.23562 -3.54839e-009 -100.52 -0.033844 -179.972 
0.165049 103.516 3.81804e-007 104.886 -89.9999 -74.7596 0 -3.63798e-012 0 89.9928 29.8359 89.9929 -4.65434 -2.06247 -9.31323e-010 -7.62102 1.94433 179.515 10.228 -0.120064 3.68889 32.966 78.314 -21.7796 15.0421 2.98023e-008 3.8147e-006 6.1254 -5.33128 -37.2024 10.2278 -0.120068 -3.68915 -135.812 76.2693 151.596 15.0421 -3.55272e-015 -3.8147e-006 -7.71812 6.22858 -37.0089 -2.76082 1.44023 1.99879e-010 -3.70443 -0.161205 -1.26315 7.6294e-006 -7.6294e-006 -6.20578 -51.9909 -6.0361 -172.219 6.73248 -3.8147e-006 1.90735e-006 -54.4915 -1.03651e-005 -1.41803e-005 8.08523 -4.76837e-007 -9.53674e-007 56.8804 8.3271e-007 -7.89265e-007 8.9752 0 5.32907e-015 -10.9571 1.78602 -4.94273 1.58769 -0.23461 -0.295067 152.283 -4.04675 174.097 3.03848 0.000823021 -9.53673e-007 -31.9125 -2.8354 1.49916 1.65434 0.934261 1.02404 42.2224 37.5414 -29.3767 3.51775 -0.00142288 0.00177193 -44.2392 -2.92657 1.48925 1.47286 1.0108 -1.16719 13.4142 -29.809 23.1437 3.94896 0.000770569 8.94304e-008 -27.0016 -2.2593 0.51149 1.07478 1.64254 0.0221283 26.6068 -9.65208 -2.41214 4.09656 0.00112534 5.54223e-013 -31.8555 -2.87031 1.53092 2.04188 1.88329 -5.03837e-011 37.0716 8.74732 -10.3468 -1.52588e-005 -3.8147e-006 6.20577 -44.8748 3.5486 174.108 6.73249 -7.6294e-006 -4.76837e-007 -36.3622 -7.23317e-007 5.58961e-007 8.08525 0 4.76837e-007 71.138 5.27369e-006 -1.04521e-005 8.97519 -7.62939e-006 4.76837e-007 -87.4596 -5.87499 -5.62052 1.65463 0.93365 -1.0242 63.7083 -30.9973 31.9701 3.51776 -1.42108e-014 9.53674e-007 -0.781177 -0.00028798 0.0198154 1.07526 1.64217 -0.0221434 44.3152 0.9158 8.06544 4.09657 -1.14441e-005 -2.38419e-007 7.67502 9.47958e-006 -1.00967e-006 1.58763 -0.234992 0.295126 178.797 4.96423 178.594 3.03848 1.42108e-014 1.77636e-015 -31.1883 8.80037e-006 6.76388e-006 1.47314 1.01053 1.16728 47.1944 26.8364 -2.62122 3.94897 7.10542e-015 -1.19209e-007 -3.1691 -9.56954e-005 0.00174543 2.04243 1.8827 9.58386e-007 77.0459 -0.13076 -5.30376 8.61808 -0.0066185 0 11.8791 0.40536 2.62441 0.267601 -6.12424 -7.49304 -68.3843 -25.9739 137.816 14.7158 7.62939e-006 7.62939e-006 59.0569 1.80685 7.7235 19.0859 1.42108e-014 1.90735e-006 -49.1537 -7.04432 46.1404 2.68913 -0.27058 0.785255 -47.7963 2.26968 5.11549 21.1083 7.62939e-006 -3.55271e-015 -7.62746 1.77128 -26.1634 27.642 -3.8147e-006 -1.52588e-005 -2.66624 -0.0642249 7.11825 0.267609 -6.12423 7.49306 -69.4775 27.056 -137.32 14.7158 1.14441e-005 -3.8147e-006 59.0569 -1.80684 -7.7235 19.0859 3.8147e-006 9.53674e-006 -49.1537 7.04433 -46.1404 3.01062 -0.135914 -0.630692 -48.6302 -1.44202 -2.90837 21.1083 -7.62938e-006 -7.62939e-006 -7.62747 -1.77128 26.1634 27.642 1.42108e-014 -3.55271e-015 -2.66624 0.0642229 -7.11823 7.59912 -1.43219 2.38419e-007 0.597382 3.06668 -4.65623 3.64795 -0.00254059 -1.19209e-007 -0.976081 -0.169564 2.24073 3.32397 -0.00277329 -2.38419e-007 15.1052 0.210351 1.73324 4.63258 -0.573326 3.27482e-010 -12.9294 -2.60688 -0.489071 1.05384 2.23562 -3.51112e-009 -100.52 -0.0338593 -179.972 
0.159423 103.584 3.85745e-007 89.8275 -89.9999 -90 2.77556e-017 -3.63798e-012 0 89.9928 30.2021 89.993 -4.65434 -2.06247 -9.31322e-010 -8.55647 1.95198 179.547 10.228 -0.120064 3.68889 31.648 78.1863 -19.3507 15.0421 2.98023e-008 3.8147e-006 6.12191 -5.36982 -36.1404 10.2278 -0.120068 -3.68915 -136.633 76.1778 153.523 15.0421 -7.10543e-015 -3.8147e-006 -7.69505 6.25823 -35.9489 -2.75148 1.4576 2.20266e-010 -3.47707 -0.166207 -1.26266 7.6294e-006 -7.6294e-006 -6.20578 -53.7861 -6.27369 -172.332 6.73248 -3.8147e-006 1.90735e-006 -55.2244 -1.84115e-005 -8.59783e-006 8.08523 -4.76837e-007 -9.53674e-007 56.372 8.39682e-007 -7.81844e-007 8.9752 -7.10543e-015 5.32907e-015 -11.5323 1.80574 -5.02221 1.58769 -0.23461 -0.295067 152.424 -4.16998 174.061 3.03848 0.000823021 -9.53674e-007 -32.163 -2.79689 1.46906 1.65434 0.934261 1.02404 42.1102 37.7284 -29.383 3.51775 -0.00142288 0.00177193 -44.4292 -2.84004 1.4368 1.47286 1.0108 -1.16719 12.8023 -30.2633 22.8358 3.94896 0.000770569 8.94318e-008 -26.7866 -2.17148 0.468083 1.07478 1.64254 0.0221283 26.44 -9.54743 -2.51653 4.09656 0.00112534 5.15143e-013 -32.0137 -2.78729 1.47127 2.04188 1.88329 -5.0846e-011 36.7035 8.69196 -10.1334 -1.52588e-005 -3.8147e-006 6.20577 -46.0287 3.68531 174.086 6.73249 -7.6294e-006 -4.76837e-007 -37.3279 -7.6217e-007 5.70241e-007 8.08525 1.42109e-014 4.76837e-007 71.7885 4.25607e-006 -1.08289e-005 8.97519 -7.62939e-006 4.76837e-007 -88.8793 -6.09063 -5.53202 1.65463 0.93365 -1.0242 64.2511 -30.6955 32.2531 3.51776 -7.10542e-015 9.53674e-007 -2.01699 -0.000550896 0.0151423 1.07526 1.64217 -0.0221434 45.2587 1.04934 8.04927 4.09657 -1.14441e-005 -2.38419e-007 6.00389 0.000740101 0.00694591 1.58763 -0.234992 0.295126 178.836 4.95843 178.594 3.03848 7.10542e-015 5.32907e-015 -31.6218 8.89525e-006 6.53097e-006 1.47314 1.01053 1.16728 47.5776 26.7551 -2.62715 3.94897 3.55271e-015 -1.19209e-007 -3.90905 5.98494e-005 -0.000862078 2.04243 1.8827 9.56774e-007 76.8285 -0.369478 -4.94735 8.61808 -0.0066185 0 11.8476 0.403915 2.62463 0.267601 -6.12424 -7.49304 -69.0616 -26.1218 133.671 14.7158 7.62939e-006 7.62939e-006 64.0077 2.36025 7.35169 19.0859 0 1.90735e-006 -53.0598 -9.58731 52.1251 2.68913 -0.27058 0.785255 -46.9296 2.33005 5.43581 21.1083 7.62939e-006 3.55271e-015 -6.98925 1.5029 -22.11 27.642 -3.8147e-006 -1.52588e-005 -2.67329 -0.0617704 8.49514 0.267609 -6.12423 7.49306 -70.719 27.6209 -132.893 14.7158 1.14441e-005 -3.8147e-006 64.0077 -2.36025 -7.35169 19.0859 3.8147e-006 9.53674e-006 -53.0598 9.5873 -52.1251 3.20549 -0.0539178 -0.535871 -48.3309 -1.14993 -3.63277 21.1083 -7.62938e-006 -7.62939e-006 -7.04497 -1.5393 22.3414 27.642 1.42108e-014 -1.06581e-014 -2.67329 0.0617694 -8.49514 7.59912 -1.43219 2.38419e-007 -0.360863 3.10901 -4.63394 3.64795 -0.00254059 -1.19209e-007 0.110594 -0.109754 2.24351 3.32397 -0.00277329 -2.38419e-007 14.907 0.204354 1.73395 4.63258 -0.573326 3.41514e-010 -13.5942 -2.59912 -0.475417 1.05384 2.23562 -3.45057e-009 -100.52 -0.0338593 -179.972 
